<?xml version="1.0" encoding="UTF-8"?>
<!-- Uploaded to: ICON Repo, www.svgrepo.com, Generator: ICON Repo Mixer Tools -->
<svg fill="#000000" width="800px" height="800px" version="1.1" viewBox="144 144 512 512" xmlns="http://www.w3.org/2000/svg">
 <path d="m610.62 313.99 6.0664-6.8008-0.77344-12.484-6.8438-6.0469-9.582 0.60547c-1.875-6.4727-4.8281-12.492-8.7891-17.93l6.3398-7.1992-0.57031-9.1133-9.3711-8.2422-9.1055 0.55859-6.3477 7.207c-5.8984-3.25-12.234-5.418-18.887-6.4688l-0.60547-9.5938-6.8633-6.0195-12.441 0.78125-6.0352 6.8438 0.60156 9.582c-6.4609 1.8711-12.48 4.8203-17.93 8.7891l-7.1992-6.3398-9.1094 0.55859-8.2578 9.3555 0.55859 9.1211 7.207 6.3555c-3.2539 5.9023-5.4297 12.246-6.4688 18.895l-9.5742 0.60547-6.0312 6.8516 0.78125 12.445 6.8516 6.0391 9.582-0.60547c1.875 6.4688 4.8281 12.48 8.7969 17.926l-6.3438 7.1992 0.55469 9.1055 9.3711 8.2578 9.1094-0.55859 6.3555-7.207c5.9023 3.2539 12.246 5.4297 18.895 6.4727l0.60547 9.582 6.8359 6.0391 12.445-0.78516 6.0469-6.8359-0.60547-9.5859c6.4727-1.8711 12.492-4.8281 17.93-8.7969l7.1992 6.3398 9.1094-0.55859 8.2461-9.3633-0.55859-9.1211-7.207-6.3594c3.2539-5.9062 5.4297-12.25 6.4766-18.898zm-44.91 10.938c-5.1914 5.8906-12.367 9.4141-20.203 9.9023-0.62891 0.042969-1.2539 0.0625-1.8828 0.0625-15.457 0-28.336-12.102-29.309-27.551-0.49219-7.7852 2.1094-15.332 7.3242-21.254 5.2109-5.9219 12.375-9.4492 20.164-9.9375 16.117-1.0586 30.172 11.316 31.191 27.492 0.48828 7.8438-2.0977 15.398-7.2852 21.285zm-48.43 136.62c0.6875-11.156-0.69531-22.188-4.1133-32.844l13.594-7.7266 3.5078-12.723-9.1289-16.039-12.723-3.5-13.598 7.7305c-7.4062-8.3867-16.184-15.211-26.109-20.316l4.1445-15.074-6.5234-11.465-17.793-4.8945-11.473 6.5273-4.1367 15.066c-11.125-0.71094-22.152 0.67969-32.844 4.1172l-7.7383-13.594-12.723-3.5-16.043 9.1289-3.5 12.723 7.7383 13.594c-8.3945 7.4141-15.223 16.188-20.328 26.117l-15.066-4.1484-11.469 6.5273-4.8945 17.793 6.5234 11.473 15.066 4.1445c-0.6875 11.156 0.69531 22.188 4.1172 32.844l-13.594 7.7305-3.5 12.719 9.125 16.051 12.723 3.4961 13.594-7.7266c7.4062 8.3789 16.184 15.207 26.125 20.32l-4.1484 15.074 6.5273 11.469 17.797 4.8906 11.465-6.5273 4.1445-15.062c11.125 0.70313 22.148-0.67969 32.844-4.1172l7.7305 13.594 12.723 3.5 16.055-9.1289 3.4922-12.734-7.7266-13.594c8.3906-7.4141 15.219-16.188 20.316-26.117l15.074 4.1484 11.473-6.5273 4.8828-17.793-6.5273-11.469zm-43.926 7.1602c-5.6602 20.602-24.539 34.984-45.898 34.984-4.2344 0-8.4766-0.57422-12.594-1.707-25.305-6.957-40.234-33.199-33.277-58.504 3.3477-12.172 11.301-22.359 22.402-28.672 7.3359-4.168 15.414-6.2969 23.566-6.2969 4.1914 0 8.3984 0.55859 12.535 1.6953 12.262 3.3711 22.477 11.316 28.762 22.359 6.2734 11.043 7.875 23.879 4.5039 36.141zm-145.89-80.809 10.363-10.379v-10.609l-8.3477-8.3438c4.5352-7.0312 7.7148-14.719 9.4805-22.879h11.797l7.5039-7.5039v-14.66l-7.5039-7.5039-11.797 0.003906c-1.7695-8.1641-4.9492-15.844-9.4844-22.883l8.3555-8.3438v-10.621l-10.375-10.359h-10.609l-8.3477 8.3477c-7.0312-4.5352-14.715-7.7148-22.879-9.4805v-11.797l-7.5117-7.5039-14.656-0.003907-7.5117 7.5039v11.793c-8.168 1.7695-15.848 4.9492-22.879 9.4844l-8.3477-8.3438-10.617-0.03125-10.371 10.375v10.609l8.3477 8.3555c-4.5391 7.0391-7.7227 14.719-9.4844 22.879h-11.793l-7.5039 7.5039v14.66l7.5117 7.5039 11.797-0.003906c1.7695 8.1641 4.9492 15.848 9.4844 22.883l-8.3477 8.3438v10.609l10.359 10.375 10.609 0.003907 8.3477-8.3555c7.0312 4.5352 14.719 7.7227 22.879 9.4844v11.797l7.5039 7.5039h14.668l7.5039-7.5039v-11.797c8.1602-1.7695 15.84-4.9453 22.871-9.4805l8.3477 8.3594zm-20.645-67.07c-0.003907 19.875-16.168 36.043-36.043 36.043s-36.039-16.168-36.039-36.043 16.168-36.043 36.039-36.043c9.6133 0 18.656 3.7539 25.473 10.57 6.8242 6.8125 10.57 15.859 10.57 25.473z"/>
</svg>