<?xml version="1.0" encoding="UTF-8"?>
<!-- Uploaded to: ICON Repo, www.svgrepo.com, Generator: ICON Repo Mixer Tools -->
<svg fill="#000000" width="800px" height="800px" version="1.1" viewBox="144 144 512 512" xmlns="http://www.w3.org/2000/svg">
 <path d="m343.73 550.13c-7.2539-38.867-23.812-62.676-38.875-84.32-17.457-25.105-33.109-47.594-33.109-86.184 0-35.418 14.359-67.484 37.566-90.691l0.61328-0.56641c23.176-22.875 54.996-37 90.074-37 35.375 0 67.445 14.371 90.664 37.59 23.23 23.184 37.59 55.25 37.59 90.668 0 38.59-15.648 61.078-33.109 86.184-15.062 21.641-31.621 45.449-38.875 84.32v58.953c0 8.2969-3.4023 15.848-8.8672 21.316-5.5117 5.5039-13.062 8.9062-21.355 8.9062h-52.09c-8.2969 0-15.848-3.4023-21.316-8.8672-5.5039-5.5117-8.9062-13.062-8.9062-21.355v-58.953zm46.195-379.37c0-5.5625 4.5117-10.074 10.074-10.074s10.074 4.5117 10.074 10.074v47.879c0 5.5625-4.5117 10.074-10.074 10.074s-10.074-4.5117-10.074-10.074zm-143.54 67.801c-3.9336-3.9336-3.9336-10.312 0-14.246s10.312-3.9336 14.246 0l33.859 33.852c3.9336 3.9336 3.9336 10.312 0 14.246-3.9336 3.9336-10.312 3.9336-14.246 0zm259.12 259.11c-3.9336-3.9336-3.9336-10.312 0-14.246 3.9336-3.9336 10.312-3.9336 14.246 0l33.859 33.859c3.9336 3.9336 3.9336 10.312 0 14.246-3.9336 3.9336-10.312 3.9336-14.246 0zm-312.66-109.68c-5.5625 0-10.074-4.5117-10.074-10.074s4.5117-10.074 10.074-10.074h47.879c5.5625 0 10.074 4.5117 10.074 10.074s-4.5117 10.074-10.074 10.074zm366.44 0c-5.5625 0-10.074-4.5117-10.074-10.074s4.5117-10.074 10.074-10.074h47.879c5.5625 0 10.074 4.5117 10.074 10.074s-4.5117 10.074-10.074 10.074zm-19.922-163.68c3.9336-3.9336 10.312-3.9336 14.246 0s3.9336 10.312 0 14.246l-33.859 33.852c-3.9336 3.9336-10.312 3.9336-14.246 0-3.9336-3.9336-3.9336-10.312 0-14.246zm-259.12 259.11c3.9336-3.9336 10.312-3.9336 14.246 0 3.9336 3.9336 3.9336 10.312 0 14.246l-33.859 33.859c-3.9336 3.9336-10.312 3.9336-14.246 0-3.9336-3.9336-3.9336-10.312 0-14.246zm146.23-40.469c1.8047 0.042969 3.5391-0.42188 5.0234-1.2969l0.40625-0.22656c1.4062-0.92188 2.582-2.25 3.332-3.8633l0.19531-0.39453c0.67969-1.6406 0.85547-3.4375 0.57031-5.1602-0.30469-1.8398-1.1602-3.5938-2.5039-4.9883-1.3516-1.3984-3.0703-2.3164-4.875-2.6797-1.8281-0.375-3.7773-0.20312-5.5742 0.55469-5.1055 2.1484-10.996-0.24219-13.145-5.3477-2.1484-5.1055 0.24219-10.996 5.3477-13.145 5.6055-2.375 11.676-2.8984 17.383-1.7305 5.7227 1.1602 11.109 4.0352 15.348 8.4141 4.2305 4.3906 6.8984 9.8672 7.8594 15.613 0.91797 5.5 0.26172 11.293-2.082 16.656l-0.26953 0.62891c-2.4453 5.2734-6.3477 9.5742-11.078 12.543l-0.67969 0.43359c-4.832 2.8516-10.484 4.3398-16.309 4.0703h-15.355v76.305h27.906c8.6094-39.012 25.336-63.059 40.629-85.035 15.547-22.363 29.492-42.391 29.492-74.684 0-29.855-12.102-56.887-31.664-76.445-19.523-19.57-46.559-31.664-76.441-31.664-29.641 0-56.473 11.895-75.953 31.141l-0.48828 0.52344c-19.559 19.559-31.664 46.594-31.664 76.445 0 32.293 13.941 52.324 29.492 74.684 15.293 21.977 32.02 46.023 40.629 85.035h27.906v-76.305h-15.359c-5.832 0.26953-11.48-1.2188-16.309-4.0703l-0.67969-0.43359c-4.7305-2.9688-8.6328-7.2734-11.078-12.543l-0.26953-0.63672c-2.3438-5.3672-3.0039-11.156-2.082-16.656l0.089844-0.45703c1.0234-5.5938 3.6641-10.895 7.7695-15.148 4.2383-4.3789 9.6211-7.2539 15.348-8.4141 5.7109-1.168 11.77-0.64453 17.375 1.7305 5.1055 2.1484 7.4961 8.0391 5.3477 13.145-2.1484 5.1055-8.0391 7.4961-13.145 5.3477-1.7969-0.75391-3.7422-0.92969-5.5703-0.55469-1.8047 0.36328-3.5234 1.2812-4.875 2.6797-1.293 1.3398-2.1367 2.9922-2.4648 4.707l-0.042969 0.27344c-0.28516 1.7148-0.10547 3.5234 0.57031 5.1602l0.19531 0.39844c0.75 1.6133 1.9297 2.9414 3.332 3.8633l0.40625 0.22656c1.4805 0.875 3.2188 1.3398 5.0234 1.2969h0.054688v-0.007813c0.34375-0.035156 0.68359-0.054687 1.0312-0.054687h50.801c0.34375 0 0.69141 0.019531 1.0312 0.054687v0.007813h0.054687zm-62.602 127.45 72.238-6.9219v-3.9922h-72.242v10.914zm72.238 13.25-72.238 6.9219v4.4141l72.238-6.9258zm0 24.582-70.328 6.7461c0.31641 0.43359 0.66016 0.84375 1.0352 1.2188 1.8203 1.8086 4.3516 2.9453 7.1289 2.9453h52.09c2.7773 0 5.3086-1.1367 7.1289-2.9453 1.8086-1.8203 2.9453-4.3516 2.9453-7.1289v-0.83984z"/>
</svg>