<?xml version="1.0" encoding="UTF-8"?>
<!-- Uploaded to: ICON Repo, www.svgrepo.com, Generator: ICON Repo Mixer Tools -->
<svg fill="#000000" width="800px" height="800px" version="1.1" viewBox="144 144 512 512" xmlns="http://www.w3.org/2000/svg">
 <g>
  <path d="m230.46 609.58c-8.1172 0.019531-15.902-3.2031-21.629-8.957l-9.457-9.457c-5.7266-5.7383-8.9453-13.52-8.9453-21.629 0-8.1094 3.2188-15.887 8.9453-21.629l127.78-127.76c3.1445-3.1367 8.2344-3.1367 11.383 0l41.312 41.312c1.5117 1.5117 2.3594 3.5625 2.3594 5.6992 0 2.1367-0.84766 4.1875-2.3594 5.6992l-127.76 127.76c-5.7266 5.7539-13.512 8.9805-21.629 8.957zm-19.684-50.27c-2.707 2.7148-4.2266 6.3945-4.2266 10.227 0 3.8359 1.5195 7.5117 4.2266 10.23l9.457 9.457v-0.003906c2.7109 2.7148 6.3906 4.2383 10.227 4.2383 3.8359 0 7.5156-1.5234 10.227-4.2383l122.08-122.08-29.91-29.914z"/>
  <path d="m480.61 448.36c-34.223 0.089844-67.059-13.516-91.191-37.785-28.348-28.355-41.898-68.285-36.66-108.04 5.2383-39.754 28.668-74.809 63.395-94.855 34.73-20.043 76.805-22.797 113.85-7.4453 37.043 15.348 64.84 47.055 75.211 85.785 10.375 38.734 2.1406 80.086-22.273 111.89-24.414 31.809-62.23 50.453-102.33 50.445zm-79.805-49.184v0.003906c24.809 24.809 59.742 36.672 94.527 32.094 34.789-4.5781 65.465-25.078 83.008-55.461 17.543-30.383 19.957-67.199 6.5312-99.613-13.426-32.418-41.164-56.742-75.055-65.824-33.891-9.082-70.074-1.8828-97.91 19.477s-44.152 54.449-44.152 89.535c-0.082031 29.949 11.824 58.684 33.062 79.801z"/>
  <path d="m480.61 414.11c-25.133 0.046875-49.25-9.9258-67.008-27.711-36.938-36.945-36.938-97.051 0-134.01 36.938-36.965 97.051-36.938 134.01 0 36.965 36.938 36.938 97.051 0 134.01-17.758 17.785-41.871 27.758-67.004 27.711zm0-173.31v-0.003906c-20.855-0.035157-40.863 8.2383-55.598 22.996-30.656 30.656-30.656 80.535 0 111.19s80.535 30.656 111.19 0 30.656-80.535 0-111.19c-14.734-14.754-34.742-23.031-55.594-22.996z"/>
  <path d="m510.49 327.45h-59.781c-4.4531 0-8.0625-3.6094-8.0625-8.0586 0-4.4531 3.6094-8.0625 8.0625-8.0625h59.781c4.4531 0 8.0625 3.6094 8.0625 8.0625 0 4.4492-3.6094 8.0586-8.0625 8.0586z"/>
  <path d="m369 470.08c-3.2578 0-6.1953-1.9648-7.4453-4.9766-1.2461-3.0117-0.55469-6.4766 1.7461-8.7812l43-43c3.1641-3.0703 8.2031-3.0312 11.316 0.085937 3.1172 3.1172 3.1523 8.1562 0.082031 11.316l-43 43c-1.5117 1.5078-3.5625 2.3555-5.6992 2.3555z"/>
  <path d="m338.03 438.99c-3.2617 0-6.1992-1.9609-7.4492-4.9727s-0.55859-6.4805 1.7461-8.7852l42.941-42.941h-0.003906c3.1602-3.0703 8.1992-3.0312 11.316 0.082031 3.1172 3.1133 3.1562 8.1562 0.085938 11.316l-42.941 42.941v-0.003906c-1.5078 1.5156-3.5586 2.3672-5.6953 2.3633z"/>
 </g>
</svg>