<?xml version="1.0" encoding="UTF-8"?>
<!-- Uploaded to: ICON Repo, www.svgrepo.com, Generator: ICON Repo Mixer Tools -->
<svg fill="#000000" width="800px" height="800px" version="1.1" viewBox="144 144 512 512" xmlns="http://www.w3.org/2000/svg">
 <g>
  <path d="m400 163.84c-62.637 0-122.7 24.883-166.99 69.172-44.289 44.289-69.172 104.36-69.172 166.99 0 62.633 24.883 122.7 69.172 166.99 44.289 44.289 104.36 69.172 166.99 69.172 62.633 0 122.7-24.883 166.99-69.172 44.289-44.289 69.172-104.36 69.172-166.99 0-41.457-10.914-82.18-31.641-118.08-20.727-35.902-50.539-65.715-86.441-86.441-35.898-20.727-76.625-31.641-118.08-31.641zm0 377.86v0.003906c-37.582 0-73.621-14.93-100.2-41.504-26.574-26.57-41.504-62.613-41.504-100.19 0-37.582 14.93-73.621 41.504-100.2 26.574-26.574 62.613-41.504 100.2-41.504 37.578 0 73.621 14.93 100.19 41.504 26.574 26.574 41.504 62.613 41.504 100.2 0 37.578-14.93 73.621-41.504 100.19-26.57 26.574-62.613 41.504-100.19 41.504zm105.41-258.28c-26.848-24.375-61.32-38.676-97.535-40.461v-63.371c52.984 1.8164 103.52 22.762 142.25 58.961zm-113.28-40.461c-36.215 1.7852-70.688 16.086-97.531 40.461l-44.715-44.633c38.695-36.289 89.234-57.32 142.25-59.199zm-108.71 51.641c-24.375 26.844-38.676 61.316-40.461 97.531h-63.371c1.8164-52.98 22.762-103.52 58.961-142.25zm-40.461 113.28c1.7852 36.215 16.086 70.688 40.461 97.535l-44.633 44.715v-0.003906c-36.289-38.695-57.32-89.23-59.199-142.25zm51.641 108.71c26.789 24.52 61.266 38.961 97.531 40.855v62.977c-52.98-1.8125-103.52-22.762-142.25-58.961zm113.28 40.855c36.215-1.7852 70.688-16.086 97.535-40.461l44.715 44.633h-0.003906c-38.754 36.145-89.285 57.035-142.25 58.805zm108.71-51.641c24.602-26.891 39.051-61.523 40.855-97.926h62.977c-1.8125 52.984-22.762 103.52-58.961 142.25zm40.855-113.67c-1.7852-36.215-16.086-70.688-40.461-97.531l44.633-44.715c36.145 38.754 57.035 89.285 58.805 142.25z"/>
  <path d="m522.49 393.46-50.934-34.48c-21.098-14.367-46.031-22.051-71.555-22.051-25.527 0-50.461 7.6836-71.559 22.051l-50.934 34.48h0.003907c-2.1797 1.4609-3.4844 3.9102-3.4844 6.5352 0 2.6211 1.3047 5.0703 3.4844 6.5312l50.934 34.48h-0.003906c21.102 14.355 46.035 22.035 71.559 22.035 25.52 0 50.453-7.6797 71.555-22.035l50.934-34.48c2.1758-1.4609 3.4805-3.9102 3.4805-6.5312 0-2.625-1.3047-5.0742-3.4805-6.5352zm-122.49 45.895c-10.441 0-20.453-4.1484-27.832-11.527-7.3828-7.3828-11.531-17.395-11.531-27.832 0-10.441 4.1484-20.453 11.531-27.832 7.3789-7.3828 17.391-11.531 27.832-11.531 10.438 0 20.449 4.1484 27.832 11.531 7.3789 7.3789 11.527 17.391 11.527 27.832 0 10.438-4.1484 20.449-11.527 27.832-7.3828 7.3789-17.395 11.527-27.832 11.527zm-104.07-39.359 41.094-27.945c8.0625-5.4297 16.793-9.7969 25.977-12.992-11.594 10.449-18.215 25.328-18.215 40.938 0 15.605 6.6211 30.484 18.215 40.934-9.1836-3.1953-17.914-7.5586-25.977-12.988zm167.05 27.945c-8.0664 5.4297-16.797 9.793-25.98 12.988 11.598-10.449 18.215-25.328 18.215-40.934 0-15.609-6.6172-30.488-18.215-40.938 9.1836 3.1953 17.914 7.5625 25.98 12.992l41.09 27.945z"/>
  <path d="m400 376.38c-6.2656 0-12.273 2.4883-16.699 6.918-4.4297 4.4258-6.918 10.434-6.918 16.699 0 6.2617 2.4883 12.27 6.918 16.699 4.4258 4.4258 10.434 6.9141 16.699 6.9141 6.2617 0 12.27-2.4883 16.699-6.9141 4.4258-4.4297 6.9141-10.438 6.9141-16.699 0-6.2656-2.4883-12.273-6.9141-16.699-4.4297-4.4297-10.438-6.918-16.699-6.918zm0 31.488c-3.1836 0-6.0547-1.918-7.2734-4.8594-1.2188-2.9414-0.54687-6.3281 1.707-8.5781 2.25-2.2539 5.6367-2.9258 8.5781-1.707 2.9414 1.2188 4.8594 4.0898 4.8594 7.2734 0 2.0859-0.82812 4.0898-2.3047 5.5664-1.4766 1.4766-3.4805 2.3047-5.5664 2.3047z"/>
 </g>
</svg>