<?xml version="1.0" encoding="UTF-8"?>
<!-- Uploaded to: ICON Repo, www.svgrepo.com, Generator: ICON Repo Mixer Tools -->
<svg fill="#000000" width="800px" height="800px" version="1.1" viewBox="144 144 512 512" xmlns="http://www.w3.org/2000/svg">
 <g>
  <path d="m485.61 234.77h44.379c1.125 0 2.1406-0.67578 2.5703-1.7109 0.42969-1.043 0.19141-2.2383-0.60938-3.0312l-67.859-67.859c-0.79297-0.80078-1.9922-1.0312-3.0312-0.60938-1.0391 0.42969-1.7109 1.4453-1.7109 2.5703l0.003907 44.383c0 14.48 11.781 26.258 26.258 26.258"/>
  <path d="m199.03 565.8c-1.5547 0-2.8164-1.2578-2.8164-2.8164 0-1.5547 1.2578-2.7422 2.8164-2.7422h178.48c-4.2227-9.6328-7.2617-19.781-9.1875-30.082l-169.29 0.003907c-1.5547 0-2.8164-1.2578-2.8164-2.8164 0-1.5547 1.2578-2.7422 2.8164-2.7422h168.48c-0.96484-6.5938-1.6289-13.262-1.6289-19.93 0-3.4062 0.29688-6.7422 0.51953-10.148h-167.37c-1.5547 0-2.8164-1.1836-2.8164-2.7422 0-1.5547 1.2578-2.8164 2.8164-2.8164h167.81c1.1836-10.371 3.5547-20.375 6.8906-29.934l-174.7 0.003907c-1.5547 0-2.8164-1.2578-2.8164-2.8164 0-1.5547 1.2578-2.7422 2.8164-2.7422h176.78c4.2227-10.816 9.8555-20.895 16.523-30.156h-193.3c-1.5547 0-2.8164-1.1836-2.8164-2.7422 0-1.5547 1.2578-2.8164 2.8164-2.8164h197.45c9.4102-11.633 20.598-21.781 33.191-29.934l-230.64 0.003906c-1.5547 0-2.8164-1.2578-2.8164-2.8164 0-1.5547 1.2578-2.7422 2.8164-2.7422h239.75c19.855-10.816 42.527-16.965 66.605-16.965 8.8906 0 17.559 0.81641 25.637 2.3711 0.59375 0.074219 1.1133 0.22266 1.7031 0.37109v-128.18c-0.89062 0.29688-1.7773 0.44531-2.7422 0.44531h-44.379c-17.559 0-31.785-14.301-31.785-31.785v-44.379c0-0.96484 0.14844-1.8516 0.51953-2.7422h-276.65c-9.4102 0-16.965 7.5586-16.965 16.965v409.94c0 9.4102 7.5586 17.039 16.965 17.039h231.16c-11.93-11.41-21.484-24.969-28.672-39.562zm0-364.89h222.64c1.4805 0 2.7422 1.2578 2.7422 2.8164 0 1.4805-1.2578 2.7422-2.7422 2.7422l-222.64-0.003906c-1.4805 0-2.7422-1.2578-2.7422-2.7422 0-1.5547 1.2617-2.8125 2.7422-2.8125m0 36.449h222.64c1.4805 0 2.7422 1.2578 2.7422 2.7422 0 1.5547-1.2578 2.8164-2.7422 2.8164h-222.64c-1.4805 0-2.7422-1.2578-2.7422-2.8164 0-1.4805 1.2617-2.7422 2.7422-2.7422m0 36.453h295.32c1.5547 0 2.8164 1.1836 2.8164 2.7422 0 1.5547-1.2578 2.8164-2.8164 2.8164h-295.32c-1.4805 0-2.7422-1.2578-2.7422-2.8164 0-1.5547 1.2617-2.7422 2.7422-2.7422m0 36.379h295.32c1.5547 0 2.8164 1.2578 2.8164 2.8164 0 1.4805-1.2578 2.7422-2.8164 2.7422l-295.32-0.003906c-1.4805 0-2.7422-1.2578-2.7422-2.7422 0-1.5547 1.2617-2.8125 2.7422-2.8125m0 36.453h295.32c1.5547 0 2.8164 1.2578 2.8164 2.7422 0 1.5547-1.2578 2.8164-2.8164 2.8164l-295.32-0.003906c-1.4805 0-2.7422-1.2578-2.7422-2.8164 0-1.4805 1.2617-2.7383 2.7422-2.7383"/>
  <path d="m529.99 373.18c-7.9258-1.5547-16.152-2.3047-24.598-2.3047-74.016 0-133.95 59.938-133.95 133.81 0 38.594 16.301 73.422 42.453 97.863 23.93 22.375 56.086 36.09 91.5 36.09 73.941 0 133.88-59.945 133.88-133.95 0-65.496-47.047-119.95-109.28-131.51m-19.617 241.1-1.6445 0.050781c-0.60156 0.023437-1.1992 0.050781-1.7695 0.050781h-1.3633c-1.6094 0-3.2148 0-4.8242-0.10547-58.77-2.5039-104.84-50.625-104.84-109.56 0-58.871 46.07-106.96 104.89-109.46 1.5547-0.10547 3.1719-0.10547 4.7695-0.10547h1.5547c0.57812 0 1.125 0.03125 1.6836 0.050781l1.4219 0.042969c58.879 2.5117 104.91 50.598 104.91 109.47-0.003906 58.945-46.035 107.07-104.79 109.57"/>
  <path d="m501.32 417.85c0.074219 0.37109 0.29688 0.81641 0.59375 1.0391 0.22266 0.29688 0.37109 0.59375 0.66797 0.81641 0.81641 0.74219 1.8516 1.1836 3.0391 1.1836 0.66797 0 1.2578-0.14844 1.8516-0.44531 0.51953-0.14844 1.0391-0.51953 1.4062-0.96484 0.37109-0.37109 0.66797-0.74219 0.89062-1.2578 0.074219-0.074219 0.074219-0.14844 0.074219-0.37109 0.29688-0.44531 0.44531-1.0391 0.44531-1.6289v-9.8555h-0.37109l-4.3711-0.074219h-0.44531c-1.1836 0-2.4453 0-3.6289 0.074219h-0.51953v9.8555c0 0.44531 0.074219 0.96484 0.29688 1.332-0.078125 0.074219-0.003906 0.22266 0.070312 0.29688"/>
  <path d="m509.69 591.21c-0.14844-0.44531-0.44531-0.81641-0.66797-1.1094-0.14844-0.074219-0.22266-0.14844-0.29688-0.14844-0.29688-0.4375-0.59375-0.59375-0.96484-0.66797-0.14844-0.22266-0.29687-0.22266-0.51953-0.22266-0.074219-0.074218-0.22266-0.22266-0.29688-0.074218-0.37109-0.22266-0.89062-0.29688-1.332-0.29688-2.668 0-4.668 2-4.668 4.5938v9.8555h0.37109c1.1836 0.074219 2.3711 0.14844 3.4062 0.14844 0 0 4.8906-0.14844 5.5586-0.14844v-9.8555c0-0.51953-0.14844-1.0391-0.29688-1.4805-0.14453-0.22266-0.14453-0.4375-0.29297-0.59375"/>
  <path d="m564.96 438.81c-0.37109 0.37109-0.66797 0.81641-0.81641 1.1836-0.074219 0-0.074219 0.14844-0.074219 0.29688-0.22266 0.37109-0.37109 0.74219-0.37109 1.1836-0.074219 0.29688-0.14844 0.66797-0.074219 1.0391 0 1.0391 0.44531 2.0742 1.332 2.8906 0.44531 0.51953 0.89062 0.81641 1.5547 1.0391 0.51953 0.29688 1.1836 0.37109 1.7031 0.37109 0.51953 0 1.0391-0.074218 1.4805-0.29688 0.14844 0 0.22266-0.074219 0.37109-0.22266 0.51953-0.074219 1.0391-0.44531 1.4062-0.89062l7.0391-6.9648c-2.0742-2.3711-4.2969-4.5938-6.5938-6.5938z"/>
  <path d="m447.38 566.03c0.074219-0.22266-0.074218-0.37109-0.22266-0.51953 0-0.074218 0-0.22266-0.14844-0.22266-0.14844-0.44531-0.37109-0.81641-0.74219-1.1836-1.8516-1.8516-4.7422-1.8516-6.5938 0l-6.9648 6.9648c2 2.3711 4.2227 4.5195 6.5195 6.668l7.0391-7.0391c0.37109-0.44531 0.66797-0.81641 0.89062-1.332 0.074219-0.22266 0.22266-0.29688 0.22266-0.59375 0.22266-0.37109 0.22266-0.81641 0.22266-1.2578 0-0.14844 0-0.22266-0.074218-0.29688 0.074218-0.52344 0-0.82031-0.14844-1.1875"/>
  <path d="m603.93 500.09h-9.7812c-0.44531 0-0.96484 0.14844-1.332 0.29687-0.14844-0.074218-0.22266 0-0.29688 0.14844-0.37109 0.074219-0.81641 0.22266-1.1133 0.51953-0.29688 0.22266-0.51953 0.44531-0.74219 0.74219-0.81641 0.74219-1.1836 1.7773-1.1836 2.9648 0 0.66797 0.14844 1.2578 0.37109 1.8516 0.22266 0.59375 0.59375 1.0391 1.0391 1.4805 0.37109 0.37109 0.74219 0.66797 1.2578 0.81641 0.074218 0.14844 0.14844 0.14844 0.37109 0.14844 0.44531 0.29687 1.0391 0.37109 1.6289 0.37109h9.7812c0.14844-1.5547 0.14844-3.1875 0.14844-4.7422 0-1.5586 0-3.043-0.14844-4.5977"/>
  <path d="m417 500.09h-9.7812c-0.14844 1.5547-0.14844 3.0391-0.14844 4.5938 0 1.5547 0 3.1875 0.14844 4.7422h9.7812c0.59375 0 1.1094-0.074219 1.5547-0.29688 0.22266-0.074219 0.44531-0.074219 0.59375-0.29688 0.37109-0.074219 0.81641-0.37109 1.1133-0.66797 0.074219-0.074218 0.14844-0.22266 0.14844-0.29688 0.37109-0.29688 0.59375-0.59375 0.66797-0.96484 0.22266-0.074219 0.22266-0.29688 0.22266-0.51953 0.074219-0.074218 0.22266-0.14844 0.074219-0.29688 0.22266-0.37109 0.29688-0.81641 0.29688-1.332-0.003906-2.5898-2.0039-4.6641-4.6719-4.6641"/>
  <path d="m570.37 563.36c0-0.14844-0.14844-0.14844-0.29688-0.14844-0.37109-0.22266-0.74219-0.37109-1.1836-0.37109-0.29688-0.074219-0.66797-0.14844-1.0391-0.074219-1.0391 0-2.0742 0.51953-2.8906 1.332-0.51953 0.44531-0.89062 0.96484-1.0391 1.5547-0.29688 0.59375-0.37109 1.1836-0.37109 1.7031 0 0.59375 0.074219 1.0391 0.29688 1.5547 0 0.14844 0.074219 0.22266 0.22266 0.29688 0.074219 0.59375 0.44531 1.0391 0.89062 1.4805l6.9648 6.9648c2.3711-2 4.5195-4.2227 6.5195-6.5938l-6.9648-6.9648c-0.29297-0.36328-0.73828-0.58594-1.1094-0.73438"/>
  <path d="m441.01 446.3c0.14844 0.074219 0.29688 0.22266 0.59375 0.22266 0.37109 0.22266 0.81641 0.29687 1.2578 0.29687 0.074219 0 0.22266 0 0.29688-0.074218 0.51953 0.074218 0.81641 0 1.1836-0.22266 0.22266 0.074218 0.37109-0.074219 0.44531-0.22266 0.14844 0 0.29688 0 0.29688-0.074219 0.44531-0.14844 0.81641-0.44531 1.1836-0.81641 1.8516-1.8516 1.8516-4.7422 0-6.5938l-7.0391-6.9648c-2.2969 2.0742-4.5195 4.2969-6.5938 6.5938l7.0391 6.9648c0.44922 0.44531 0.81641 0.74219 1.3359 0.89062"/>
  <path d="m530.51 421.03c-6.5938 13.41-18.523 39.562-24.82 65.941h0.37109c4.2969 0.14844 8.2969 1.8516 11.336 4.5938 6.3711-19.633 15.707-50.602 17.781-69.199 0.37109-2.7422-3.4062-3.8516-4.668-1.3359"/>
  <path d="m506.06 492.53h-1.0391c-0.22266 0-0.37109 0-0.59375 0.074218-2.8164 0.22266-5.2617 1.4062-7.1875 3.2617-2.4453 2.1484-3.9258 5.3359-3.9258 8.8906 0 1.2578 0.22266 2.5195 0.59375 3.6289 1.4805 4.8164 5.8516 8.3711 11.113 8.5938h1.0391c6.5195-0.29687 11.707-5.6289 11.707-12.227 0-2.668-0.89062-5.1875-2.3711-7.1875-2.0781-2.8867-5.4844-4.8867-9.3359-5.0352"/>
  <path d="m442.27 504.02c-2.5938 0.74219-2.2227 4.668 0.51953 4.8164 14.594 0.96484 24.969 3.8516 45.641 0.51953-0.44531-1.4062-0.66797-3.0391-0.66797-4.5938 0-2.9648 0.74219-5.8516 2.1484-8.3711-13.41 0.96094-32.082 3.1094-47.641 7.6289"/>
 </g>
</svg>